<svg xmlns="http://www.w3.org/2000/svg" version="1.1" xmlns:xlink="http://www.w3.org/1999/xlink" xmlns:svgjs="http://svgjs.dev/svgjs" width="1000" height="270" viewBox="0 0 1000 270"><g transform="matrix(1,0,0,1,-0.6060400952298437,0.13886114336605715)"><svg viewBox="0 0 396 107" data-background-color="#ffffff" preserveAspectRatio="xMidYMid meet" height="270" width="1000" xmlns="http://www.w3.org/2000/svg" xmlns:xlink="http://www.w3.org/1999/xlink"><g id="tight-bounds" transform="matrix(1,0,0,1,0.23999187771102015,-0.055030156815433884)"><svg viewBox="0 0 395.52 107.11006031363087" height="107.11006031363087" width="395.52"><g><svg viewBox="0 0 395.52 107.11006031363087" height="107.11006031363087" width="395.52"><g><svg viewBox="0 0 395.52 107.11006031363087" height="107.11006031363087" width="395.52"><g id="textblocktransform"><svg viewBox="0 0 395.52 107.11006031363087" height="107.11006031363087" width="395.52" id="textblock"><g><svg viewBox="0 0 395.52 107.11006031363087" height="107.11006031363087" width="395.52"><g transform="matrix(1,0,0,1,0,0)"><svg width="395.52" viewBox="3.8499999046325684 -34.900001525878906 165.7899932861328 44.900001525878906" height="107.11006031363087" data-palette-color="#00ebff"><path d="M3.85 0L3.85-34.9 20.8-34.9Q25.15-34.9 27.58-32.45 30-30 30-25.95L30-25.95Q30-23.95 29.48-22.55 28.95-21.15 28.08-20.25 27.2-19.35 26.03-18.93 24.85-18.5 23.5-18.45L23.5-18.45 23.5-18.15Q24.75-18.15 26.13-17.7 27.5-17.25 28.65-16.28 29.8-15.3 30.58-13.75 31.35-12.2 31.35-9.95L31.35-9.95Q31.35-7.9 30.68-6.08 30-4.25 28.8-2.9 27.6-1.55 25.95-0.78 24.3 0 22.35 0L22.35 0 3.85 0ZM11.45-14.4L11.45-6.4 20.2-6.4Q21.7-6.4 22.58-7.23 23.45-8.05 23.45-9.55L23.45-9.55 23.45-11.25Q23.45-12.75 22.58-13.58 21.7-14.4 20.2-14.4L20.2-14.4 11.45-14.4ZM11.45-28.5L11.45-20.6 19-20.6Q20.5-20.6 21.35-21.45 22.2-22.3 22.2-23.8L22.2-23.8 22.2-25.3Q22.2-26.8 21.35-27.65 20.5-28.5 19-28.5L19-28.5 11.45-28.5ZM48.6-14L52.45-26.25 59.35-26.25 49.25 4.05Q48.25 7.1 46.42 8.55 44.6 10 41.2 10L41.2 10 36.6 10 36.6 4.25 41.55 4.25 42.45 1.35 33.25-26.25 40.6-26.25 44.45-14 46.35-6.4 46.65-6.4 48.6-14ZM76.7 0L72.3 0Q68.45 0 66.47-1.95 64.5-3.9 64.5-7.65L64.5-7.65 64.5-20.5 60.8-20.5 60.8-26.25 62.65-26.25Q64.15-26.25 64.7-26.98 65.25-27.7 65.25-29.05L65.25-29.05 65.25-33.35 71.9-33.35 71.9-26.25 77.1-26.25 77.1-20.5 71.9-20.5 71.9-5.75 76.7-5.75 76.7 0ZM92.99 0.6L92.99 0.6Q89.99 0.6 87.64-0.38 85.29-1.35 83.67-3.13 82.04-4.9 81.22-7.45 80.39-10 80.39-13.15L80.39-13.15Q80.39-16.25 81.19-18.78 81.99-21.3 83.57-23.1 85.14-24.9 87.44-25.88 89.74-26.85 92.69-26.85L92.69-26.85Q95.94-26.85 98.27-25.75 100.59-24.65 102.07-22.8 103.54-20.95 104.22-18.53 104.89-16.1 104.89-13.45L104.89-13.45 104.89-11.25 88.04-11.25 88.04-10.85Q88.04-8.25 89.44-6.73 90.84-5.2 93.84-5.2L93.84-5.2Q96.14-5.2 97.59-6.13 99.04-7.05 100.29-8.35L100.29-8.35 103.99-3.75Q102.24-1.7 99.42-0.55 96.59 0.6 92.99 0.6ZM92.84-21.4L92.84-21.4Q90.59-21.4 89.32-19.93 88.04-18.45 88.04-16L88.04-16 88.04-15.6 97.24-15.6 97.24-16.05Q97.24-18.45 96.17-19.93 95.09-21.4 92.84-21.4ZM110.34-34.9L117.74-34.9 117.74-13.5Q117.74-9.8 119.19-7.98 120.64-6.15 124.04-6.15L124.04-6.15Q127.44-6.15 128.89-7.98 130.34-9.8 130.34-13.5L130.34-13.5 130.34-34.9 137.74-34.9 137.74-14.3Q137.74-10.45 137.02-7.63 136.29-4.8 134.64-2.98 132.99-1.15 130.39-0.28 127.79 0.6 124.04 0.6L124.04 0.6Q120.29 0.6 117.69-0.28 115.09-1.15 113.44-2.98 111.79-4.8 111.07-7.63 110.34-10.45 110.34-14.3L110.34-14.3 110.34-34.9ZM144.84 10L144.84-26.25 152.24-26.25 152.24-21.85 152.49-21.85Q153.04-24.05 155.01-25.45 156.99-26.85 159.54-26.85L159.54-26.85Q164.54-26.85 167.09-23.35 169.64-19.85 169.64-13.15L169.64-13.15Q169.64-6.45 167.09-2.93 164.54 0.6 159.54 0.6L159.54 0.6Q158.24 0.6 157.09 0.23 155.94-0.15 155.01-0.83 154.09-1.5 153.44-2.43 152.79-3.35 152.49-4.4L152.49-4.4 152.24-4.4 152.24 10 144.84 10ZM157.09-5.4L157.09-5.4Q159.19-5.4 160.56-6.88 161.94-8.35 161.94-10.85L161.94-10.85 161.94-15.4Q161.94-17.9 160.56-19.38 159.19-20.85 157.09-20.85L157.09-20.85Q154.99-20.85 153.61-19.83 152.24-18.8 152.24-17L152.24-17 152.24-9.25Q152.24-7.45 153.61-6.43 154.99-5.4 157.09-5.4Z" opacity="1" transform="matrix(1,0,0,1,0,0)" fill="#fff" class="undefined-text-0" data-fill-palette-color="primary" id="text-0"></path></svg></g></svg></g></svg></g></svg></g></svg></g><defs></defs></svg><rect width="395.52" height="107.11006031363087" fill="none" stroke="none" visibility="hidden"></rect></g></svg></g></svg>
